# xmcd
# Track frame offsets:
# 150
# 14567
# 30545
# 43939
# 55225
# 72015
# 86790
# 99970
# 117545
# 132142
# 147055
# 160545
# 185330
#
# Disc length: 2645 seconds
# Revision: 0
# Processed by: cddbd v1.4PL0 Copyright (c) Steve Scherf et al.
# Submitted via: VisiTrax 2.9.5.180 - For more info visit www.synapsa.com
#
DISCID=aa0a530d
DTITLE=Ben Olander - Country lover
DYEAR=1900
DGENRE=
TTITLE0=Country lover
TTITLE1=Cowboy logic
TTITLE2=Mule skinner blues
TTITLE3=Peach pickin time down in Georgia
TTITLE4=Detroit City
TTITLE5=May you never be alone
TTITLE6=Jambalaya
TTITLE7=Cold cold heart
TTITLE8=Swinging doors
TTITLE9=Okie fron Muskogee
TTITLE10=Today I started loving you again
TTITLE11=Jersey girl
TTITLE12=The wreck on the highway
EXTD=
EXTT0=
EXTT1=
EXTT2=
EXTT3=
EXTT4=
EXTT5=
EXTT6=
EXTT7=
EXTT8=
EXTT9=
EXTT10=
EXTT11=
EXTT12=
PLAYORDER=
